<?xml version="1.0" encoding="UTF-8"?>
<svg version="1.1" xmlns="http://www.w3.org/2000/svg" width="650" height="650">
<path d="M0 0 C15.15954484 8.60163804 27.19358868 20.7204844 39.47918701 32.91333008 C40.48470415 33.91079795 41.49169624 34.90678161 42.50030518 35.90112305 C49.24404126 42.55961646 55.43524029 49.49696973 61.32421875 56.93359375 C62.32535884 58.15331737 63.32889278 59.37108438 64.3359375 60.5859375 C86.60023397 87.78065101 115.90427832 126.68237931 114.32421875 163.99609375 C113.78307534 167.34134393 113.33823603 167.91922604 110.82421875 170.49609375 C106.63058868 172.21847753 102.77340675 173.17936639 98.32421875 171.93359375 C92.48066505 167.73987619 90.84662077 161.37429161 88.51171875 154.80859375 C88.10501953 153.71160156 87.69832031 152.61460937 87.27929688 151.484375 C84.32421875 143.38895089 84.32421875 143.38895089 84.32421875 139.93359375 C83.66421875 139.93359375 83.00421875 139.93359375 82.32421875 139.93359375 C82.09734375 140.4853125 81.87046875 141.03703125 81.63671875 141.60546875 C76.82832607 150.13464148 66.99019563 157.13006678 59.32421875 162.93359375 C59.84579238 166.92823416 60.80052044 170.47250982 62.2409668 174.23217773 C86.927861 238.73714774 76.81568991 316.21221859 49.38671875 378.18359375 C45.5983737 386.54974953 41.58351239 394.79748881 37.32421875 402.93359375 C36.72335449 404.08166504 36.72335449 404.08166504 36.11035156 405.25292969 C30.98325447 414.97052165 25.52313116 424.33826411 19.44921875 433.49609375 C4.10406664 456.69695153 1.28478817 481.52069552 6.78076172 508.50390625 C9.57341157 520.9892842 13.92325493 532.98549083 18.6081543 544.86865234 C20.43989056 549.5160966 22.04646401 554.10289854 23.32421875 558.93359375 C24.01902344 559.01996094 24.71382812 559.10632813 25.4296875 559.1953125 C45.41965211 561.95691724 64.38202666 568.00463373 83.49121094 574.30004883 C101.03260687 580.17826146 101.03260687 580.17826146 119.32421875 581.93359375 C113.28138996 569.71099312 107.26014519 558.29179788 98.32421875 547.93359375 C97.48117187 546.95261719 96.638125 545.97164062 95.76953125 544.9609375 C92.02466063 540.36114911 92.02466063 540.36114911 87.32421875 536.93359375 C87.32421875 536.27359375 87.32421875 535.61359375 87.32421875 534.93359375 C86.8034375 534.71316406 86.28265625 534.49273438 85.74609375 534.265625 C83.10168266 532.8111989 80.8542095 531.03159885 78.50195312 529.15063477 C69.23648854 521.79904717 59.25629783 516.30426748 48.79296875 510.84375 C35.98567382 504.11967198 26.31669304 497.08636685 21.32421875 482.93359375 C18.03536805 472.09725235 21.13751803 460.71433358 26.14648438 450.94799805 C28.04933411 447.69335188 30.43186284 444.97475166 32.94921875 442.18359375 C34.02261517 440.9587536 35.09552435 439.73348631 36.16796875 438.5078125 C36.70035156 437.90501465 37.23273438 437.3022168 37.78125 436.68115234 C73.16589306 396.60468477 93.98702103 344.80106544 102.07421875 292.37109375 C102.18991211 291.6231958 102.30560547 290.87529785 102.42480469 290.10473633 C104.16567237 277.98083637 104.51846821 265.79086667 104.51171875 253.55859375 C104.51211151 252.87225861 104.51250427 252.18592346 104.51290894 251.47879028 C104.50252561 236.19431517 103.48910015 221.0692603 101.32421875 205.93359375 C100.33198053 195.48674276 100.33198053 195.48674276 103.26171875 191.30859375 C107.23232948 188.22934461 110.34819939 187.54455951 115.32421875 187.93359375 C119.64781064 189.62543406 121.24387174 191.87830399 123.32421875 195.93359375 C123.97669254 198.48839113 124.48387896 200.90286795 124.88671875 203.49609375 C125.00893799 204.25623779 125.13115723 205.01638184 125.25708008 205.79956055 C128.42395827 227.03615083 128.8539911 248.44904148 127.5246582 269.83642578 C127.38647086 272.06258713 127.25429535 274.28904481 127.12304688 276.515625 C127.07897202 277.24100967 127.03489716 277.96639435 126.98948669 278.71376038 C126.90350547 280.14454566 126.82145311 281.57557307 126.74354553 283.00682068 C126.5623397 286.11877393 126.28907514 289.14313187 125.77319336 292.21899414 C124.78461654 297.24795949 124.78461654 297.24795949 126.61694336 301.77148438 C128.56964282 303.45900887 130.55621938 304.78218635 132.76171875 306.12109375 C134.25422241 307.13111469 135.74384327 308.14540939 137.23046875 309.1640625 C137.94589844 309.64020996 138.66132813 310.11635742 139.3984375 310.60693359 C151.39199311 318.86922837 162.3276342 334.380288 166 348.5390625 C166.36772028 352.7281896 165.40363006 355.39450314 162.82421875 358.68359375 C157.14742251 364.46423382 150.58334098 369.38721668 144.24121094 374.40869141 C141.70209247 376.42847413 139.20014745 378.49180252 136.69921875 380.55859375 C132.66215206 383.87043888 128.56705856 387.09858875 124.44921875 390.30859375 C119.26284313 394.35405145 114.21463508 398.53002759 109.21923828 402.80810547 C105.33211079 406.12127889 101.35685094 409.29970063 97.32421875 412.43359375 C90.49297577 417.74741578 83.89066964 423.29761161 77.32421875 428.93359375 C76.58558594 429.5471875 75.84695313 430.16078125 75.0859375 430.79296875 C69.28550462 435.67509663 64.33909357 441.26210684 59.32421875 446.93359375 C58.67066406 447.64902344 58.01710938 448.36445313 57.34375 449.1015625 C51.15753932 455.9432657 45.67825331 462.60580012 44.32421875 471.93359375 C44.57185968 476.80386528 45.40146676 480.03458233 48.32421875 483.93359375 C50.70814444 485.36744637 52.93471178 486.54206063 55.44921875 487.68359375 C56.90044211 488.38004843 58.35094013 489.07801615 59.80078125 489.77734375 C60.92274902 490.31101562 60.92274902 490.31101562 62.06738281 490.85546875 C92.75642344 505.51609223 116.7206345 527.18196032 133.32421875 556.93359375 C133.70594238 557.61711914 134.08766602 558.30064453 134.48095703 559.00488281 C149.71422071 586.75965874 149.71422071 586.75965874 147.1640625 598.94140625 C145.43727899 603.03749738 143.47699924 605.23654403 139.32421875 606.93359375 C134.27995246 607.69924131 129.38085791 607.40320968 124.32421875 606.93359375 C123.55803223 606.86495117 122.7918457 606.79630859 122.00244141 606.72558594 C103.78515922 604.93081619 86.42073827 599.67408517 68.953125 594.4296875 C11.76721041 577.27435522 -30.8914811 579.00626191 -87.80419922 596.26293945 C-116.73623676 605.00598072 -116.73623676 605.00598072 -130.55078125 606.18359375 C-131.73837036 606.2930835 -131.73837036 606.2930835 -132.94995117 606.40478516 C-135.19092216 606.60060929 -137.43205504 606.77283978 -139.67578125 606.93359375 C-141.37541016 607.06121094 -141.37541016 607.06121094 -143.109375 607.19140625 C-147.61728815 607.37490339 -150.12674211 607.20329719 -154.23828125 605.18359375 C-157.01197812 602.62325818 -158.45044903 600.66666361 -158.94140625 596.890625 C-158.9008567 591.32519936 -158.13558708 586.29921378 -156.67578125 580.93359375 C-156.452854 580.1132666 -156.22992676 579.29293945 -156.00024414 578.44775391 C-150.07784718 557.77009383 -138.04460381 540.61132619 -123.08886719 525.39501953 C-121.76232222 524.02309518 -120.48645363 522.60267951 -119.21484375 521.1796875 C-105.47422277 506.29040262 -86.51746736 496.56540593 -68.46118164 487.86669922 C-67.75340576 487.52268066 -67.04562988 487.17866211 -66.31640625 486.82421875 C-65.3713623 486.37224121 -65.3713623 486.37224121 -64.40722656 485.91113281 C-61.04102835 484.01064527 -58.40019788 481.382427 -56.67578125 477.93359375 C-55.98167429 471.07217574 -56.1948048 465.44957834 -60.67578125 459.93359375 C-62.74606237 457.59114205 -64.85915018 455.29243861 -66.98046875 452.99609375 C-78.47267286 440.21350651 -87.85907885 425.63268069 -96.77734375 411.00390625 C-99.30837904 406.9105035 -101.96393851 402.90890868 -104.67578125 398.93359375 C-108.77883281 400.45494995 -112.46813407 402.45626132 -116.30078125 404.55859375 C-122.39755796 407.70213133 -127.83134145 409.65870624 -134.67578125 407.93359375 C-140.55826 404.93844164 -144.46165526 398.64601449 -148.48046875 393.60546875 C-150.83494184 390.73988228 -153.34300242 388.17311821 -156.00390625 385.59765625 C-158.40455193 383.20822854 -160.5919892 380.6524342 -162.8046875 378.08984375 C-168.02959509 372.06865588 -173.43079074 366.20010079 -178.80078125 360.30859375 C-181.58391017 357.25227426 -184.34557928 354.18402127 -187.05078125 351.05859375 C-190.18601835 347.44787045 -193.42483572 343.93971085 -196.67578125 340.43359375 C-200.50377286 336.30476842 -204.28986085 332.15328426 -207.96484375 327.88671875 C-209.25026069 326.41934781 -210.56219526 324.97513903 -211.88671875 323.54296875 C-224.84895077 309.50413939 -224.84895077 309.50413939 -225.48828125 302.49609375 C-224.22954195 288.10697583 -204.01939618 272.48058302 -193.68359375 263.37890625 C-153.77482278 230.93359375 -153.77482278 230.93359375 -140.67578125 230.93359375 C-140.40443064 228.91282981 -140.13375826 226.89197481 -139.86328125 224.87109375 C-139.72853394 223.87819336 -139.72853394 223.87819336 -139.59106445 222.86523438 C-139.04178068 218.78880036 -138.52754313 214.7105844 -138.05078125 210.625 C-133.90418044 175.76137603 -124.05754934 142.04015496 -107.70117188 110.89892578 C-106.65716244 108.8979077 -105.64152106 106.88425087 -104.62890625 104.8671875 C-93.66864457 83.28853922 -79.50247694 64.15283602 -63.67578125 45.93359375 C-62.92554688 45.06992188 -62.1753125 44.20625 -61.40234375 43.31640625 C-17.0532918 -6.7964214 -17.0532918 -6.7964214 0 0 Z M-13.55078125 28.62109375 C-14.7133088 29.64739925 -15.87607744 30.67343171 -17.0390625 31.69921875 C-17.63799316 32.23482422 -18.23692383 32.77042969 -18.85400391 33.32226562 C-20.61939168 34.88371822 -22.4104883 36.4064962 -24.21875 37.91796875 C-35.85941489 47.65966447 -46.32806119 57.93873172 -55.67578125 69.93359375 C-56.47628906 70.94035156 -57.27679688 71.94710937 -58.1015625 72.984375 C-66.4298275 83.53828301 -73.79089286 94.68070155 -80.73828125 106.18359375 C-81.31171265 107.13177979 -81.31171265 107.13177979 -81.89672852 108.09912109 C-83.44111458 110.69329287 -84.7175992 113.05904759 -85.67578125 115.93359375 C-76.40352114 135.64722503 -55.13141456 148.64324003 -35.61279297 156.23779297 C-27.95267659 158.98941027 -19.79202084 160.4595479 -11.67578125 160.93359375 C-10.89589844 160.98644531 -10.11601562 161.03929687 -9.3125 161.09375 C16.9610546 162.01073294 41.44292024 150.66542933 60.453125 133.08984375 C67.5549355 126.34107331 67.5549355 126.34107331 72.32421875 117.93359375 C72.74137798 99.16142832 47.09190213 73.4645385 34.98046875 60.73828125 C32.91445813 58.55681709 30.94406605 56.35572089 29.01171875 54.05859375 C18.99502401 42.58315706 7.97220875 30.97079859 -5.703125 23.8828125 C-9.09898803 23.97023076 -11.16180682 26.43677491 -13.55078125 28.62109375 Z M-96.67578125 138.93359375 C-106.98239953 166.14595765 -114.79998035 193.90314046 -117.67578125 222.93359375 C-117.78792969 224.03574219 -117.90007812 225.13789063 -118.015625 226.2734375 C-122.49769128 279.87403836 -111.93242749 333.09752315 -88.55078125 381.37109375 C-88.21943176 382.05742889 -87.88808228 382.74376404 -87.54669189 383.45089722 C-78.98563539 401.07689804 -68.7288072 419.06402766 -54.67578125 432.93359375 C-54.34578125 432.93359375 -54.01578125 432.93359375 -53.67578125 432.93359375 C-53.66119873 431.73758545 -53.64661621 430.54157715 -53.6315918 429.30932617 C-53.57365539 424.875427 -53.49642251 420.44203817 -53.41333008 416.00854492 C-53.38005875 414.08903277 -53.35203371 412.16942227 -53.3293457 410.24975586 C-53.29584004 407.49159803 -53.24352722 404.73434332 -53.1875 401.9765625 C-53.18111008 401.11709518 -53.17472015 400.25762787 -53.1681366 399.37211609 C-53.14834244 398.5715126 -53.12854828 397.77090912 -53.1081543 396.94604492 C-53.09705124 396.24211105 -53.08594818 395.53817719 -53.07450867 394.81291199 C-52.55799361 392.37842635 -51.57552745 391.49302733 -49.67578125 389.93359375 C-47.18823339 388.68981982 -45.44922824 388.8005314 -42.67578125 388.80859375 C-41.78890625 388.80601562 -40.90203125 388.8034375 -39.98828125 388.80078125 C-37.67578125 388.93359375 -37.67578125 388.93359375 -35.67578125 389.93359375 C-34.45846157 394.06634874 -34.52148424 398.2581693 -34.51464844 402.53100586 C-34.50720108 403.65416702 -34.50720108 403.65416702 -34.49960327 404.80001831 C-34.48503603 407.27033422 -34.47818579 409.74058574 -34.47265625 412.2109375 C-34.46841518 413.48520694 -34.46841518 413.48520694 -34.46408844 414.78521919 C-34.44911127 419.28821242 -34.4398748 423.79117379 -34.43554688 428.29418945 C-34.43009011 432.91020787 -34.40611745 437.52592715 -34.37757492 442.14185238 C-34.35879264 445.72045186 -34.35373455 449.29898185 -34.352211 452.87762642 C-34.34921474 454.57700788 -34.34129083 456.27638903 -34.32802582 457.97572136 C-34.2225254 472.54049337 -34.41375351 488.0388428 -44.98022461 499.32714844 C-50.40942278 504.46398583 -56.99958029 507.1369514 -63.73828125 510.18359375 C-73.88160126 514.88025726 -82.93120189 519.93539927 -91.67578125 526.93359375 C-93.29832501 528.10367403 -94.92296116 529.27086512 -96.55078125 530.43359375 C-98.36682475 531.6841998 -98.36682475 531.6841998 -99.67578125 532.93359375 C-99.67578125 533.59359375 -99.67578125 534.25359375 -99.67578125 534.93359375 C-100.27261719 535.206875 -100.86945313 535.48015625 -101.484375 535.76171875 C-116.6152195 543.85307945 -128.29364987 566.70489021 -133.67578125 581.93359375 C-133.67578125 582.59359375 -133.67578125 583.25359375 -133.67578125 583.93359375 C-124.60851161 583.53566041 -116.3374508 581.80571905 -107.61328125 579.37109375 C-106.29388746 579.01184768 -104.97430328 578.65330018 -103.65454102 578.29541016 C-96.20028378 576.26007648 -88.79818023 574.08053241 -81.41015625 571.81567383 C-55.16883844 563.79986844 -28.88120798 559.71429339 -1.67578125 556.93359375 C-2.33351328 553.21857099 -3.34238924 549.79651815 -4.6015625 546.2421875 C-17.45184201 509.313859 -23.44099695 470.24266487 -6.15234375 433.71484375 C-2.79694321 427.23319197 1.078716 421.13633617 5.01171875 414.99609375 C43.66979916 354.4202353 64.17729665 277.79213321 49.07421875 206.37109375 C46.12087673 188.94532906 46.12087673 188.94532906 38.32421875 173.93359375 C33.21601832 173.7236677 28.23969333 174.88487028 23.38671875 176.37109375 C7.61282463 180.92254269 -9.41357896 180.42087979 -25.63671875 179.421875 C-26.41426514 179.37502563 -27.19181152 179.32817627 -27.99291992 179.27990723 C-29.8872759 179.16560519 -31.78153876 179.04976148 -33.67578125 178.93359375 C-33.6790914 179.87819332 -33.68240154 180.82279289 -33.685812 181.79601669 C-33.76674934 204.76346737 -33.85904739 227.73085088 -33.96330833 250.69820786 C-34.01346386 261.80497608 -34.05990644 272.9117368 -34.09765625 284.01855469 C-34.13056227 293.69746886 -34.17038578 303.3763254 -34.21857131 313.05517602 C-34.2438501 318.18165613 -34.26562733 323.30809793 -34.27912521 328.43462372 C-34.29193301 333.25758277 -34.31397359 338.08041056 -34.34316444 342.90329742 C-34.35225025 344.67541589 -34.35793278 346.44755549 -34.35999489 348.21969604 C-34.36331035 350.63568862 -34.37876818 353.05130745 -34.39730835 355.46722412 C-34.39537362 356.17150724 -34.39343888 356.87579036 -34.39144552 357.6014154 C-34.43274862 361.19152773 -34.57335602 363.95387026 -36.67578125 366.93359375 C-39.84396881 369.04571879 -41.80797377 369.26515839 -45.54296875 369.4921875 C-49.12857083 368.55310124 -50.43654222 366.86698364 -52.67578125 363.93359375 C-53.39103682 360.32090488 -53.27230385 356.76881773 -53.18823242 353.09790039 C-53.18305162 351.99971167 -53.17787083 350.90152294 -53.17253304 349.77005577 C-53.1492625 346.10649555 -53.0901685 342.44439695 -53.03125 338.78125 C-53.00780659 336.18133925 -52.98662725 333.58140721 -52.96757507 330.98146057 C-52.91815795 324.75522286 -52.84304133 318.52956617 -52.7586984 312.3037141 C-52.66560844 305.35870309 -52.59783707 298.41353826 -52.5333941 291.46821094 C-52.50120807 288.01691413 -52.46760166 284.56563135 -52.43386841 281.11434937 C-52.42717522 280.42931843 -52.42048203 279.74428749 -52.41358602 279.03849804 C-52.34532934 272.09809748 -52.27185446 265.15775588 -52.19647002 258.2174294 C-52.18139071 256.82779184 -52.16639069 255.43815341 -52.15147042 254.04851413 C-52.06783503 246.26115185 -51.97818734 238.47391895 -51.87670898 230.68676758 C-51.79381645 224.32083911 -51.72190252 217.95488883 -51.66254872 211.58869606 C-51.63116786 208.26966661 -51.59267202 204.95110556 -51.543787 201.63226128 C-51.49064772 197.98587053 -51.45662241 194.3397622 -51.42700195 190.69311523 C-51.40686539 189.62904953 -51.38672882 188.56498383 -51.36598206 187.46867371 C-51.3390411 181.20686249 -51.90469895 175.63324554 -54.67578125 169.93359375 C-56.63312568 167.89404007 -56.63312568 167.89404007 -59.11328125 166.80859375 C-60.0053125 166.33164063 -60.89734375 165.8546875 -61.81640625 165.36328125 C-62.76 164.89148438 -63.70359375 164.4196875 -64.67578125 163.93359375 C-75.67049751 158.31338963 -86.03706191 150.49654128 -93.484375 140.5078125 C-94.07412109 139.72857422 -94.07412109 139.72857422 -94.67578125 138.93359375 C-95.33578125 138.93359375 -95.99578125 138.93359375 -96.67578125 138.93359375 Z M-168.67578125 269.93359375 C-169.58457031 270.73410156 -170.49335938 271.53460938 -171.4296875 272.359375 C-177.33140867 277.66385142 -183.03157951 283.16912572 -188.67578125 288.74609375 C-189.62843872 289.67917358 -189.62843872 289.67917358 -190.6003418 290.63110352 C-194.14954456 294.17366072 -197.05480074 297.65484306 -199.67578125 301.93359375 C-198.25839636 305.18566467 -196.55051713 307.24720442 -193.98828125 309.68359375 C-190.70181994 312.88759904 -187.64786018 316.19030749 -184.65625 319.66796875 C-182.20972316 322.46675685 -179.69499626 325.20047511 -177.17578125 327.93359375 C-173.55465612 331.86623318 -169.98618712 335.8357395 -166.484375 339.875 C-164.24566875 342.42316025 -161.96167913 344.92769968 -159.67578125 347.43359375 C-156.83053897 350.55266386 -154.00378545 353.68114766 -151.23828125 356.87109375 C-147.84988918 360.77893271 -144.33780882 364.57009542 -140.79980469 368.34228516 C-137.74054047 371.64229559 -135.10365368 375.07530529 -132.48828125 378.74609375 C-130.10015326 381.92338312 -130.10015326 381.92338312 -126.6171875 383.46875 C-121.85744973 383.09984783 -118.37252774 380.79857228 -114.67578125 377.93359375 C-115.15318469 371.10672459 -116.67185565 365.7766111 -119.30078125 359.49609375 C-132.50779049 326.19379544 -137.04350749 290.49997981 -138.67578125 254.93359375 C-149.93305961 254.1148826 -160.68631638 262.80239683 -168.67578125 269.93359375 Z M118.32421875 322.93359375 C118.1540625 323.60600098 117.98390625 324.2784082 117.80859375 324.97119141 C113.47818425 341.93292172 108.8780054 358.91210622 101.52734375 374.859375 C99.95814813 377.90241724 99.95814813 377.90241724 101.32421875 380.93359375 C101.96746094 380.32773437 102.61070312 379.721875 103.2734375 379.09765625 C108.77867181 373.9929454 114.39559464 369.22454671 120.390625 364.70581055 C125.39240563 360.9253776 130.18214959 356.92441008 134.9609375 352.8671875 C137.32421875 350.93359375 137.32421875 350.93359375 139.32421875 349.93359375 C138.92630344 340.3836262 132.45054634 334.9069793 126.07421875 328.43359375 C125.54272217 327.89259033 125.01122559 327.35158691 124.46362305 326.79418945 C121.87839719 323.86259533 121.87839719 323.86259533 118.32421875 322.93359375 Z " fill="#1A74BB" transform="translate(338.67578125,22.06640625)"/>
<path d="M0 0 C6.92468902 4.15714889 12.97161796 9.46637059 15.31640625 17.390625 C17.21483728 26.81194316 16.22999055 36.09799564 11.5625 44.578125 C6.5345037 51.89157417 -1.13037417 55.239891 -9.60546875 56.99609375 C-18.02645186 58.09780268 -24.98956797 56.65672025 -32.0078125 51.7734375 C-39.50302988 45.53896833 -43.0480251 39.00901321 -43.9765625 29.33984375 C-44.39167862 19.79217295 -41.86260947 12.69611008 -35.68359375 5.390625 C-35.02359375 5.390625 -34.36359375 5.390625 -33.68359375 5.390625 C-33.68359375 4.730625 -33.68359375 4.070625 -33.68359375 3.390625 C-23.98316418 -4.00017849 -11.0988272 -5.19286149 0 0 Z M-20.68359375 21.390625 C-22.23383839 24.49111428 -21.9735139 26.96956718 -21.68359375 30.390625 C-20.22726251 33.42001194 -20.22726251 33.42001194 -17.68359375 35.390625 C-13.78412126 35.95929807 -10.9616152 35.6149967 -7.68359375 33.390625 C-5.34190611 29.87809354 -5.18735698 28.52593144 -5.68359375 24.390625 C-7.51163182 21.34389488 -8.77014335 19.77523569 -12.05859375 18.390625 C-15.59099376 18.390625 -17.70248704 19.56130952 -20.68359375 21.390625 Z " fill="#1A74BA" transform="translate(327.68359375,99.609375)"/>
</svg>
